<svg xmlns="http://www.w3.org/2000/svg" fill-rule="evenodd" stroke-linecap="square" stroke-miterlimit="1.5" clip-rule="evenodd" width="32" height="32" viewBox="0 0 32 32">
  <path fill="none" stroke="#000" stroke-width="2" d="M31 6H11l-5 5v20h25V6z"/>
  <path fill="none" stroke="#000" stroke-width="2" d="M6 1h20v5H11l-5 5v15H1V6l5-5z"/>
  <g fill-rule="nonzero">
    <path d="M9.18 27.8v-9.3h2.8l1.7 6.35 1.67-6.35h2.81v9.3h-1.74v-7.32l-1.85 7.33h-1.8l-1.85-7.33v7.33H9.18zM20.02 18.5h3.44c.77 0 1.36.06 1.77.18.54.16 1.01.44 1.4.86.4.4.69.9.89 1.5.2.6.3 1.33.3 2.2 0 .77-.1 1.43-.28 1.98a4.1 4.1 0 0 1-1 1.65c-.32.31-.76.56-1.32.74-.41.13-.97.2-1.66.2h-3.54V18.5zm1.88 1.57v6.17h1.4c.53 0 .9-.03 1.14-.1.3-.07.56-.2.76-.38.2-.18.36-.48.5-.9.12-.41.18-.98.18-1.7s-.06-1.27-.19-1.66c-.13-.38-.3-.68-.53-.9a1.79 1.79 0 0 0-.87-.44 8.53 8.53 0 0 0-1.54-.09h-.85z"/>
  </g>
</svg>