<svg xmlns="http://www.w3.org/2000/svg" fill-rule="evenodd" stroke-linejoin="round" stroke-miterlimit="1.41" clip-rule="evenodd" width="32" height="32" viewBox="0 0 32 32">
  <path fill-rule="nonzero" d="M20 8V0H6L0 6v18h12v8h20V8H20zM6 2.83V6H2.83L6 2.83zM2 22V8h6V2h10v6l-6 6v8H2zm16-11.17V14h-3.17L18 10.83zM30 30H14V16h6v-6h10v20z"/>
  <g fill-rule="nonzero">
    <path d="M2.8 19.59V11h1.71l2.04 6.08.4 1.27.46-1.37L9.47 11H11v8.59H9.9V12.4l-2.5 7.19H6.39L3.9 12.28v7.31H2.8zM15.9 28.18v-8.59h2.96c.66 0 1.17.04 1.53.12.49.12.9.32 1.26.62.45.38.79.87 1.01 1.47.23.6.34 1.27.34 2.04 0 .65-.08 1.23-.23 1.73-.15.5-.35.92-.58 1.25-.24.33-.5.6-.79.78-.28.2-.62.34-1.02.43-.4.1-.86.15-1.38.15h-3.1zm1.13-1.01h1.84c.57 0 1.01-.06 1.33-.16.32-.1.58-.26.77-.45.27-.27.48-.63.63-1.08.15-.46.23-1.01.23-1.66a4 4 0 0 0-.44-2.07c-.3-.48-.66-.8-1.08-.97-.3-.12-.8-.18-1.47-.18h-1.8v6.57z"/>
  </g>
</svg>